<?xml version="1.0" encoding="UTF-8"?>
<svg id="Capa_1" xmlns="http://www.w3.org/2000/svg" viewBox="0 0 19 19">
  <defs>
    <style>
      .cls-1 {
        fill: #28348a;
      }
    </style>
  </defs>
  <path class="cls-1" d="M9.5.5c5,0,9,4.01,9,9,0,5-4.01,9-9,9-4.99,0-9.02-4.03-9-9C.52,4.49,4.51.5,9.5.5ZM11.7,9.63c.07-.72.13-1.37.19-2.08h-1.63c0-.25,0-.44,0-.63,0-.57.12-.68.69-.68.29,0,.59,0,.9,0v-1.73c-.68,0-1.35-.05-2,.01-.93.09-1.53.7-1.67,1.62-.07.45-.07.92-.11,1.43h-.94v2.09h1.01v5.09h2.04v-5.11h1.51Z"/>
</svg>