<?xml version="1.0" encoding="UTF-8"?>
<svg id="Capa_1" xmlns="http://www.w3.org/2000/svg" viewBox="0 0 19 19">
  <defs>
    <style>
      .cls-1 {
        fill: #22a737;
      }
    </style>
  </defs>
  <path class="cls-1" d="M9.48.5c4.99,0,9.01,3.99,9.02,8.98,0,4.99-4,9.02-8.98,9.02-4.99,0-9.03-4.02-9.02-8.98C.51,4.51,4.49.51,9.48.5ZM4.8,14.63c.8-.25,1.52-.45,2.22-.71.38-.14.7-.11,1.07.05,3.49,1.48,7.35-1.32,6.96-5.08-.22-2.13-1.42-3.58-3.44-4.28-1.93-.67-4.11-.07-5.4,1.5-1.36,1.65-1.6,3.48-.7,5.43.15.31.16.57.05.89-.26.7-.48,1.41-.75,2.2Z"/>
  <path class="cls-1" d="M6.12,13.38c.12-.62.02-2.23-.15-2.75-.74-2.3.66-4.75,3.03-5.35,2.38-.6,4.74.93,5.21,3.4.43,2.25-1.26,4.54-3.57,4.86-.93.13-1.8-.02-2.61-.46-.28-.15-.51-.16-.8-.05-.35.13-.71.23-1.12.35ZM7.57,8.36c.02.09.03.31.12.49.72,1.49,1.84,2.51,3.49,2.85.45.09.87-.06,1.19-.4.35-.38.27-.77-.18-.99-.13-.07-.28-.12-.4-.2-.3-.19-.55-.18-.74.16-.18.32-.45.4-.74.16-.46-.38-.9-.78-1.33-1.18-.17-.16-.12-.32.02-.51.12-.16.22-.4.19-.59-.05-.29-.2-.57-.34-.83-.06-.11-.21-.2-.33-.22-.51-.07-.93.46-.94,1.25Z"/>
</svg>