<?xml version="1.0" encoding="UTF-8"?>
<svg id="Capa_1" xmlns="http://www.w3.org/2000/svg" viewBox="0 0 1308 736">
  <defs>
    <style>
      .cls-1 {
        fill: #474a55;
      }

      .cls-2 {
        fill: #b24917;
      }

      .cls-3 {
        fill: #047634;
      }

      .cls-4 {
        fill: #030304;
      }

      .cls-5 {
        fill: #23398e;
      }

      .cls-6 {
        fill: #010202;
      }

      .cls-7 {
        fill: #342778;
      }

      .cls-8 {
        fill: #020203;
      }

      .cls-9 {
        fill: #dfce00;
      }
    </style>
  </defs>
  <path class="cls-6" d="M179.04,735.92c-14,0-28,0-41.99,0-1.27-1.31-1.33-2.99-1.33-4.65.01-7.9-.18-15.81.11-23.32-5.36,9.2-10.23,19.08-16.78,27.97-13.33,0-26.66,0-39.99,0-1.98-3.34.18-6.1,1.52-8.76,7-13.87,12.96-28.22,19.84-42.15,15.99-36.27,33.7-71.75,50.03-107.86,4.39-9.7,4.96-9.98,15.51-8.19,47.46,8.06,94.82,16.73,142.26,24.89,22.16,3.81,44.29,7.81,66.46,11.58,6.72,1.14,7.32.83,6.83-6.11-.87-12.28-1.68-24.56-2.54-36.84-.49-6.97-.96-13.95-1.28-20.92-.95-21.27-2.67-42.5-3.84-63.75-.78-14.12-1.99-28.21-2.31-42.36-.17-7.31-.92-14.61-1.28-21.92-.31-6.23.26-7.68,6.28-9.39,19.87-5.65,39.61-11.71,59.42-17.55,29.55-8.71,59.05-17.62,88.58-26.4,8.14-2.42,16.28-4.84,24.44-7.19,7.25-1.75,14.31-4.11,21.75-6.36-1.04-2.17-2.88-2.6-4.45-3.28-21.27-9.1-42.28-18.78-63.52-27.94-33.47-14.43-66.68-29.47-100.12-43.95-21.99-9.53-43.77-19.55-65.81-28.94-25.56-10.9-50.92-22.25-76.38-33.39-22.26-9.74-44.56-19.4-66.77-29.25-5.93-2.63-11.95-5.06-17.76-7.93-3.52-1.74-5.71-1.13-7.66,2.46-9.3,17.11-19.39,33.78-29.06,50.68-10.49,18.34-21.31,36.49-31.76,54.86-8.06,14.17-16.54,28.1-24.38,42.4-1.25,2.29-2.14,4.61-1.11,7.13,3.6,8.77,6.02,17.98,10.1,26.57,4.85,13.03,10.23,25.85,14.69,39.03.37,1.1.91,2.15,1.09,3.3.55,3.45-.66,4.6-4.13,3.71-5.93-1.53-11.89-2.94-17.78-4.62-2.8-.54-5.59-1.13-8.2-2.33-11.06-4.07-22.71-6.12-33.87-9.82-5.98-1.98-12.09-3.53-18.1-5.39-4.13-1.28-6.41-.08-8.57,3.43-3.74,6.06-8.89,11.12-12.72,17.15-.92,1.45-2.13,3.08-4.39,2.51v-55.99c3.6-6.41,8.32-12.02,12.71-17.88,13.48-17.99,27.07-35.9,40.46-53.96,17.55-23.67,35.61-46.96,53.11-70.68,9.79-13.27,19.88-26.31,29.79-39.48,4.05-5.38,3.88-5.36-2.47-6.84-20.75-4.83-41.47-9.77-62.28-14.31-12.85-2.81-25.73-5.49-38.52-8.54-9.71-2.32-19.55-4.05-29.18-6.71-1.28-.36-2.62-.54-3.62-1.55,0-12.33,0-24.66,0-36.99,1.84-1.5,3.81-.71,5.72-.27,39.21,9.1,78.25,18.94,117.41,28.26,31.72,7.55,63.42,15.14,95.08,22.9,16.15,3.96,32.44,7.36,48.45,11.85,8.21,2.24,16.64,3.71,24.53,7.05-6.7-2.73-13.71-4.48-20.65-6.45-12.82-5.16-25.81-9.87-38.8-14.55-47.18-16.99-94.24-34.29-141.45-51.2-28.85-10.34-57.54-21.14-86.43-31.39-1.43-.51-2.79-1.09-3.87-2.19,0-17,.06-33.99-.07-50.99C-.02.59.57.02,3.07.02c30.66.1,61.33.06,91.99.06,13.8,8.38,27.23,17.37,40.76,26.17,19.95,12.98,39.81,26.1,59.7,39.18,23.36,15.36,46.94,30.41,70.25,45.85,23.46,15.54,47.08,30.82,70.52,46.39,18.85,12.53,37.73,25.05,56.92,37.07,7.2,4.51,13.92,9.74,21.28,14,5.13,2.97,5.31,2.88,7.3-2.55,9.86-26.89,19.8-53.75,29.84-80.57,9.62-25.72,18.91-51.55,28.62-77.24,5.71-15.1,11.14-30.3,16.96-45.36.43-1.11.95-2.12,1.8-2.96,9.33,0,18.66,0,28,0,1.31,1.68.15,3.15-.43,4.66-8.24,21.65-15.22,43.73-22.85,65.59-1.2,3.43-.18,5.2,2.93,6.68,28.16,13.33,55.98,27.35,84.16,40.64,14.31,6.75,28.38,14.03,42.66,20.85,22.1,10.55,44.02,21.48,66.1,32.07.45.22.93.41,1.32.71,1.26.96,3.51,1.73,2.75,3.54-.77,1.83-2.94.89-4.51.57-30.85-6.3-61.63-12.94-92.48-19.28-30.84-6.34-61.56-13.27-92.49-19.2-8.5-1.63-16.88-3.86-26.09-5.61,3.13,3.88,6.7,6.45,9.95,9.23,23.67,20.23,47.04,40.8,70.6,61.16,23.43,20.24,46.83,40.54,70.05,61.03,9.36,8.26,19.15,16.05,28.23,24.63.72.68,1.6,1.22,2.2,2.03.58.78,1.38,1.63.63,2.64-.67.92-1.75.8-2.75.6-.99-.2-1.89-.64-2.79-1.08-22.34-10.82-44.81-21.35-67.18-32.1-40.38-19.42-80.89-38.57-121.25-58.03-3.15-1.52-6.45-2.71-9.5-4.45-2.33-1.33-3.94-.78-5.2,1.75-3.56,7.16-3.18,10.05,2.83,15,30.47,25.1,61.05,50.07,91.54,75.15,35.25,28.99,70.55,57.9,105.7,87,3.72,3.08,7.84,5.67,11.22,9.16,2.44,2.52,3.9,2.44,4.94-1.32,2.86-10.27,5.58-20.58,8.34-30.88,14.75-55.2,29.4-110.43,44.3-165.59,1.78-6.59,3.41-13.24,5.42-19.75,1.54-4.99.53-8.22-3.7-11.57-18.4-14.59-36.93-29.03-55.3-43.66-29.84-23.77-59.75-47.44-89.68-71.1-14.64-11.57-29.21-23.22-43.93-34.68-2.12-1.65-5.05-2.86-4.78-6.37,35.66,0,71.32,0,106.99,0,14,6.29,26.88,14.62,40.27,22.02,25.65,14.17,51.06,28.79,76.63,43.11,9.3,5.21,18.69,10.26,27.79,15.81,3.28,2,5.15,1.7,7.11-1.79,12.14-21.65,24.68-43.06,37.09-64.55,2.95-5.1,5-10.94,10.09-14.6h78.99c.89,3.2-1.3,5.38-2.71,7.72-27.61,45.78-55.26,91.53-82.92,137.27-9.57,15.82-19.18,31.61-28.67,47.47-2.64,4.42-2.52,4.7,2.65,5.17,25.85,2.36,51.69,4.74,77.54,7.03,27.84,2.47,55.66,5.05,83.49,7.6,13.41,1.23,26.83,2.56,40.28,3.4,3.87.24,4.94-1.16,4.93-4.76-.1-20.32.72-40.67-.29-60.94-.85-17.16-.55-34.28-.7-51.42-.26-30.29-1.72-60.57-1.03-90.87.06-2.62-.51-5.38,1.43-7.66,11,0,22,0,33,0,1.59,1.74,1.55,4.01,1.89,6.11,4.38,27.12,8.98,54.2,13.37,81.31,4.79,29.58,9.57,59.17,14.42,88.74,5.61,34.18,11.3,68.35,16.94,102.52,4.83,29.25,9.55,58.52,14.28,87.78.45,2.79,2.4,6.67-.43,8.36-2.95,1.75-5.37-1.91-7.41-3.8-13.79-12.8-28.18-24.93-42.06-37.62-12.9-11.79-26.17-23.18-39.19-34.84-14.02-12.55-28.11-25-42.14-37.54-3.97-3.55-8.13-6.89-11.91-10.66-2.5-2.49-5.47-3.38-9.08-3.15-16.27,1.04-32.5,2.48-48.75,3.76-11.11.88-22.22,1.71-33.35,2.37-9.8.58-19.57,1.54-29.35,2.37-11.44.96-22.89,1.63-34.33,2.54-12.77,1.02-25.54,1.98-38.3,3.08-4.73.41-2.47,2.79-1.24,4.6,7.14,10.45,14.14,21,21.29,31.45,19.86,29,39.62,58.05,59.42,87.1,17.73,26.01,35.47,52.01,53.18,78.04,17.99,26.43,36.17,52.74,53.87,79.37,2.86,4.3,6.26,8.22,8.93,12.65,1.96,3.25,4.46,3.87,8.04,2.76,18.13-5.64,36.29-11.2,54.43-16.82,28.31-8.77,56.59-17.6,84.88-26.42,31.48-9.82,63-19.53,94.47-29.4,19.39-6.08,38.84-11.98,58.2-18.17,6.33-2.02,6.55-2.1,5.28-8.81-6.15-32.4-11.57-64.94-17.57-97.37-4.48-24.23-8.63-48.53-13.12-72.76-.12-.65-.21-1.32-.31-1.98-1.12-7.25.1-8.41,6.91-6.11,14.35,4.87,28.67,9.86,42.89,15.1,2.97,1.1,5.96,2.13,8.95,3.16,1.9.65,3.84,1.24,4.84,3.22,0,59.99,0,119.97,0,179.96-.66.96-1.27,1.97-2.41,2.45-8.6,3.62-16.73,8.23-25.3,11.91-9.63,4.14-18.96,8.93-28.46,13.36-9.95,4.63-19.87,9.35-29.86,13.91-11.2,5.12-22.23,10.56-33.41,15.7-9.37,4.31-18.78,8.52-28.09,12.97-27.03,12.92-54.24,25.43-81.37,38.11-.59.28-1.22.55-1.72,1.56,1.29,1.82,3.52,2.6,5.51,3.5,13.81,6.22,27.07,13.55,40.6,20.33,52.85,26.48,105.81,52.72,158.57,79.36,6.83,3.45,13.59,7.06,20.58,10.21,1.97.89,3.93,1.84,5.35,3.57,0,8.16-.17,16.33.09,24.49.1,3-.61,3.59-3.59,3.59-45.83-.12-91.65-.08-137.48-.08-11.81-5.43-22.77-12.42-33.99-18.9-28.42-16.39-56.7-33.01-85.1-49.43-18.16-10.5-36.21-21.21-54.39-31.67-22.95-13.21-45.64-26.88-68.83-39.65-6.8-3.74-11.8-8.74-15.43-15.72-8.6-16.54-17.74-32.81-26.6-49.22-12.96-24.03-25.8-48.12-38.98-72.03-16.87-30.61-33.02-61.61-50.03-92.15-4.37-7.84-8.57-15.8-12.82-23.71-2.74-5.1-2.82-5.01-6.78-1.1-5.7,5.63-10.5,12.05-15.7,18.1-15.62,18.18-31.19,36.41-47.06,54.37-14.15,16.03-26.48,33.35-38.76,50.77-21.69,30.75-43.21,61.62-64.98,92.32-17.24,24.31-34.15,48.85-51.39,73.16-2.64,3.73-2.42,4.62,2.2,5.52,13.56,2.66,27.13,5.33,40.73,7.75,23.28,4.14,46.5,8.59,69.72,13.01,33.87,6.45,67.78,12.68,101.64,19.13,29.45,5.61,58.93,11.05,88.39,16.6,49.1,9.24,98.23,18.34,147.31,27.68,20.94,3.98,41.93,7.69,62.84,11.86,1.88.38,4.16.4,4.02,3.3-118.32,0-236.64,0-354.96,0-28.35-3.37-56.29-9.21-84.48-13.54-5.69-.87-11.27-2.36-15.74-3.09,2.05.21,5.17,1.19,8.2,2.38,9.28,3.65,18.64,7.07,27.94,10.65,1.75.67,4.02.95,4.09,3.61h-78.99c-7.07-8.26-11.56-18.18-17.39-27.24-5.84-9.07-10.92-18.61-16.73-27.71-2.6-4.08-2.71-4.14-5.02-.17-9.02,15.49-18,31.01-26.93,46.56-1.74,3.02-3.41,6.09-5.92,8.57-78.66,0-157.31,0-235.97,0-2.29-4.59-.35-9.12.49-13.55.46-2.41,3.13-2.8,5.39-2.58,16.07,1.53,32.16,2.73,48.23,4.26,13.42,1.28,26.86,2.31,40.29,3.42,13.43,1.11,26.93,1.79,40.26,3.68,9.27,1.32,15.53-.38,21.55-8.53,23.95-32.43,48.83-64.16,73.39-96.13,41.81-54.43,83.46-108.99,125.43-163.29,8.56-11.07,16.89-22.32,25.48-33.36.49-.63,1.15-1.24.87-2.27-80.01-1.27-160.01,1.5-240.17,1.2,6.41,4.85,13.5,8.37,20.3,12.35,24.6,14.36,49.31,28.54,74.01,42.74,6.45,3.71,6.9,4.91,3.33,11.37-11.06,19.96-22.83,39.52-34.19,59.32-20.4,35.54-40.97,70.98-61.48,106.46-2.51,4.35-5.37,5.49-10.17,4.77-58.16-8.69-116.33-17.3-174.49-25.94-18.95-2.81-37.89-5.64-56.84-8.44-6.33-.94-6.61-.52-5.68,5.87,4.4,30.49,8.3,61.06,13.07,91.5.38,2.45.81,5-1.03,7.17Z"/>
  <path class="cls-3" d="M1307.9,301.02c-19.77-6.98-39.57-13.9-59.3-21.01-3.7-1.33-3.95.02-3.41,3.04,5.42,29.94,10.81,59.88,16.2,89.82,5.33,29.62,10.58,59.26,16.04,88.86.57,3.08-.36,4.04-3.06,4.88-27.98,8.66-55.92,17.43-83.87,26.18-27.15,8.5-54.29,17.04-81.46,25.49-27.62,8.6-55.28,17.11-82.91,25.66-16.21,5.02-32.46,9.93-48.61,15.14-3.72,1.2-5.73.91-8.15-2.66-34.06-50.23-68.37-100.3-102.55-150.45-27.45-40.27-54.83-80.6-82.24-120.91-4.67-6.87-9.27-13.8-14.06-20.59-1.92-2.73-2.58-4.1,1.82-4.42,31.37-2.28,62.73-4.74,94.09-7.13,31.36-2.39,62.74-4.67,94.08-7.3,3.24-.27,5.09,1.03,7.01,2.73,13.45,11.93,26.81,23.96,40.24,35.91,28.61,25.45,57.24,50.86,85.86,76.29,5.41,4.81,10.31,10.22,17.22,14.84-2.49-15.47-4.8-30.02-7.18-44.56-7.57-46.27-15.15-92.53-22.76-138.8-6.51-39.52-13.1-79.04-19.6-118.56-3.78-22.97-7.46-45.96-11.15-68.95-.23-1.46-.16-2.98-.23-4.47,14.33,0,28.66,0,42.99,0,7.75,3.97,14.41,9.57,21.46,14.57,33.97,24.07,67.65,48.54,101.53,72.74,24.11,17.22,48.24,34.43,72.06,52.08,2.67,1.97,5.58,3.56,8.87,5.73-.8-5.55-2.69-10.28-4.14-15.09-12.38-41.13-24.75-82.27-37.34-123.35-.65-2.12-1.96-4.35-.45-6.69,16.5,0,33,.1,49.49-.09,2.99-.03,3.59.61,3.58,3.59-.11,64.48-.08,128.97-.08,193.45-2.46,1.51-4.53-.13-6.57-.99-33.76-14.24-67.52-28.48-101.23-42.85-15.78-6.72-31.55-13.47-47.43-19.94-5-2.03-5.8-1.41-5.09,4.04,4.51,34.65,8.14,69.41,12.41,104.1,4.84,39.32,9.11,78.7,14.06,118,.48,3.79.47,7.65,1.42,12.12,4.46-15.15,9.2-29.56,13.6-44.09,7.38-24.38,14.96-48.7,22.42-73.06,4.19-13.69,8.63-27.31,12.73-41.03,2.28-7.62,3.59-8.04,11.2-6.43,22,4.65,44.09,8.82,66.04,13.7,2.27.5,4.64.7,6.45,2.41,0,25.99,0,51.99,0,77.98Z"/>
  <path class="cls-2" d="M1072.93,735.92c-1.37-2.72-4.07-1.77-6.22-2.18-37.66-7.24-75.32-14.49-113-21.62-33.27-6.3-66.58-12.45-99.86-18.7-39.64-7.44-79.28-14.9-118.91-22.36-33.11-6.24-66.22-12.52-99.34-18.73-25.77-4.83-51.56-9.56-77.34-14.35-.98-.18-1.92-.65-2.9-.72-4.97-.32-3.31-2.93-1.71-5.21,8.65-12.4,17.36-24.77,26.1-37.11,11.32-15.98,22.76-31.87,34.05-47.88,13.01-18.46,25.88-37.02,38.86-55.5,13.66-19.44,26.93-39.17,41.24-58.12,9.9-13.11,21.22-25.15,31.98-37.6,17.17-19.88,34.4-39.7,52.07-60.08,4.59,8.3,9,16.16,13.29,24.08,10.35,19.14,20.61,38.32,30.95,57.45,12.78,23.66,25.62,47.28,38.43,70.93,17.31,31.97,34.6,63.95,51.92,95.92,2.39,4.41,6.27,7.24,10.49,9.69,35.08,20.31,70.17,40.59,105.22,60.94,36.75,21.32,73.46,42.71,110.19,64.04,8.46,4.91,16.97,9.75,25.45,14.62,1.14.66,2.45,1.13,3.02,2.48-31.33,0-62.66,0-93.99,0Z"/>
  <path class="cls-5" d="M90.88,356.05c-4.48-8.89-6.95-18.56-10.7-27.74-.71-1.73-.08-3.58.89-5.25,9.48-16.38,18.94-32.76,28.39-49.16,7.94-13.77,15.86-27.55,23.8-41.32,8.2-14.23,16.41-28.46,24.62-42.69,3.39-5.89,6.83-11.75,10.15-17.68,1.57-2.8,2.97-3.85,6.55-2.25,25,11.18,50.16,22,75.23,33.03,21.07,9.27,42.08,18.68,63.14,27.97,28.53,12.59,57.07,25.16,85.63,37.68,19.73,8.65,39.51,17.16,59.25,25.79,28.9,12.63,57.79,25.28,86.67,37.96,9.79,4.3,19.53,8.74,30.55,13.67-8.9,3.83-17,5.82-25.05,7.93-.91-1.21-.09-2.13.45-3.17,2.01-3.89,1.2-6.1-2.78-7.73-1.09-.45-2.24-.63-3.4-.79-17.72-2.51-35.09-6.94-52.78-9.62-12.45-1.89-24.45-5.7-36.68-8.39-11.8-2.6-23.91-4.01-35.89-5.89-11.16-1.75-22.42-2.76-33.48-5.39-5.57-1.32-11.49-1.58-17.23-2.52-6.65-1.08-13.44-.87-19.63-4.68-6.33-3.9-12.85-1.55-19,1.49-13.36-7.42-26.85-14.62-40.13-22.2-9.53-5.45-19.16-10.75-28.85-15.89-21.76-11.54-43.17-23.73-64.91-35.3-8.93-4.75-8-4.52-12.47,3.31-11.95,20.96-24.28,41.7-36.1,62.74-2.86,5.08-6.14,9.9-8.83,15.08-.99,1.9-2.29,3.67-2.53,6.28,2.19.93,4.52.47,6.72.28,21.52-1.88,43.06-3.66,64.57-5.62,16.05-1.46,32.12-2.83,48.2-3.95,1.49-.1,3.04-.24,4.01,1.32-.11.87-.62,1.53-1.16,2.17-3.83,4.53-5.75,9.04-1.65,14.7,2.59,3.57,2.01,8.34,3.1,12.52,2.34,8.95,5.55,17.82,3.26,27.41-.65,2.73.52,5.6.83,8.41.22,1.96,1.64,2.78,3.3,3.32,3.49,1.12,5.03,3.56,5.03,7.16,0,2.04.53,4.07,1.79,5.63,3.41,4.19,3.88,9.02,3.71,14.13-.29,8.44,2.71,16.26,5.04,24.17.81,2.75,1.57,5.33,1.31,8.27-.42,4.66.38,5.4,5.18,5.78,4.89.39,5.77,1.44,4.02,5.84-1.06,2.67-.67,4.85.72,7.07,1.72,2.74,2.72,5.65,2.66,8.95-.17,9.38-4.59,14.35-13.84,13.41-17.92-1.83-35.95.37-53.83-1.88-1.82-.23-3.77-.13-5.4-.9-7.12-3.37-15.26-2.99-22.38-6.34-2.17-1.02-4.56-.63-6.9-.38-6.93.74-13.57,1.47-20.32-2.37-4.12-2.34-9.69-1.99-14.7-1.95-3.9.04-7.64-.39-11.06-2.45-1.3-.79-2.76-1.26-4.3-1.02-6.71,1.02-13.21-.15-19.82-1.25-8.64-1.44-17.47-1.21-26.19-2.27-7.23-.88-14.32-2.7-21.77-2.27-6.68.38-13.83,6.28-12.75,12.85,1.84,11.17.14,22.26.32,33.37.09,6,1.35,11.73,1.54,17.54.18,5.77-.53,11.59.57,17.37.75,3.92,1.09,7.89,2.2,11.77,1.19,4.14,1.26,8.25-2.48,11.48-1.49,1.29-1.74,3.16-1.79,5.03-.07,2.66-.06,5.34-.6,7.96-.7,3.37-.3,6.2,3.04,8.16,2.36,1.39,2.62,3.85,1.83,6.2-1.22,3.6-1.24,7.16-.58,10.83.33,1.82.33,3.85-.91,5.29-4.21,4.9-2.05,10.05-.79,15.15.39,1.59,1.74,3.02,1.64,4.67-.73,12.18,2.82,24.1,2.1,36.27-.11,1.9-.49,3.61-1.86,5.01-.7.72-1.38,1.52-1.36,2.59.04,3.16.16,6.22-2.21,8.91-2.08,2.35-2.99,5.49-4.21,8.08,2.29-1.04,3.71-2.97,4.28-5.96.64-3.35,2.82-3.81,5.23-1.44,1.24,1.22,1.91,2.76,2.07,4.45.66,6.94,1.17,13.83.94,20.88-.26,8.34-.95,16.97,2.27,25.11.7,1.76,1.05,3.54-.35,5.17h-7c-4.87-6.43-7.28-14.12-10.79-21.24-13.42-27.25-26.47-54.68-39.54-82.1-5.76-12.09-12.4-23.83-16.66-36.62,0-54.32,0-108.64,0-162.96,1.75-1.69,4.09-1.15,6.15-1.64,4.87-1.16,5.76-2.61,4.88-7.57-.61-3.47-.8-7.01.46-10.37,1.13-3.01,1.84-5.95,1.47-9.24-.36-3.16,1.26-5.28,4.66-4.96,3.55.33,5.98-1.31,8.37-3.58,4.28-4.07,16.43-5.53,21.56-2.68,1.42.79,3.11,1.53,2.11,3.78-.99,2.24.64,2.61,2.21,2.76,3.73.37,7.37.11,10.44-2.36,2.2-1.77,4.58-2.74,7.41-1.91,3.01.89,5.2-3.42,8.38-1.28,2.63.7,5.26,1.41,7.89,2.11,2.74,2.15,3.32,5.63,5.1,8.38,2.18,3.38,4.89,5.14,8.96,5.26,12.54.37,13.91-.72,15.8-13.19.19-1.24-.02-2.35-.81-3.27-1.73-2.03-2.83-4.59-4.77-6.37-3.59-3.31-4.19-7.37-4.83-12.01-1.01-7.28-2.6-14.97-11.87-16.78-1.22-.24-1.91-1.27-2.77-2.04Z"/>
  <path class="cls-7" d="M179.04,735.92c-.37-11.83-2.95-23.39-4.49-35.07-2.98-22.44-6.23-44.85-9.54-67.24-.56-3.76-.07-4.84,4.13-4.2,51.86,7.86,103.75,15.55,155.63,23.25,27.18,4.04,54.37,7.98,81.52,12.11,2.97.45,4.4-.28,5.88-2.86,32.39-56.27,64.84-112.5,97.43-168.65,2.05-3.54,1.88-5.07-1.81-7.18-31.95-18.25-63.77-36.71-95.63-55.12-1.41-.82-2.79-1.69-4.02-3.52,82.42-.67,164.85-1.34,248.38-2.01-3.95,5.22-7.28,9.67-10.66,14.08-66.4,86.48-132.82,172.96-199.22,259.44-7.91,10.3-15.83,20.59-23.62,30.98-1.97,2.62-3.94,3.7-7.48,3.38-46.11-4.12-92.24-7.97-138.35-12.07-3.75-.33-5.13.49-5.17,4.27-.03,3.48-.64,6.95-.99,10.42-30.66,0-61.33,0-91.99,0Z"/>
  <path class="cls-7" d="M538,.09c4.83,5.76,11.18,9.77,16.98,14.37,57.5,45.63,114.87,91.44,172.87,136.43,9.01,6.99,10.07,12.7,7.25,22.96-19.47,70.92-38.25,142.04-57.27,213.08-.25.93-.71,1.8-1.25,3.16-10.79-8.84-21.34-17.45-31.85-26.09-41.79-34.34-83.57-68.68-125.35-103.03-19.93-16.38-39.79-32.85-59.86-49.06-2.87-2.32-2.76-4.2-1.8-7.2,3.69-11.48,3.59-11.49,14.44-6.31,64.16,30.62,128.33,61.24,192.51,91.82,1.44.69,2.75,1.91,5.29,1.44-62.04-53.95-123.7-107.56-185.37-161.18.18-.37.35-.73.53-1.1,72.67,15.2,145.34,30.39,218.62,45.72-2.46-2.71-5.26-3.46-7.77-4.68-63.78-31.03-127.56-62.06-191.4-92.97-3.27-1.58-3.84-2.94-2.63-6.37,7.38-20.87,14.47-41.85,21.71-62.77.97-2.79,2.22-5.49,3.34-8.23h11Z"/>
  <path class="cls-5" d="M1016.94.09c-1.03,3.94-.33,7.93-.28,11.9.88,66.63,1.75,133.27,2.82,199.9.08,4.82-.86,6.09-5.91,5.62-66.83-6.18-133.69-12.11-200.53-18.12-9.8-.88-9.72-.88-4.55-9.42,37.66-62.24,75.29-124.5,112.91-186.76.6-.99,1.04-2.07,1.56-3.1,31.33,0,62.66,0,93.99,0Z"/>
  <path class="cls-2" d="M499,.09c-1.03,7.33-4.55,13.83-7.05,20.66-9.65,26.33-19.49,52.59-29.24,78.88-13.56,36.56-27.14,73.11-40.61,109.71-1.3,3.52-2.37,4.34-5.89,1.98-17.66-11.81-35.5-23.33-53.29-34.94-18.33-11.96-36.68-23.9-55-35.88-21.38-13.99-42.72-28.03-64.1-42.01-18.72-12.25-37.46-24.46-56.2-36.68-29.59-19.3-59.19-38.57-88.76-57.9-1.49-.98-3.15-1.93-3.8-3.81,36.33,0,72.66,0,108.99,0,10.6,5.99,20.02,13.71,29.99,20.63,23.66,16.41,46.73,33.64,70.33,50.14,17.32,12.11,34.39,24.58,51.49,36.99,16.43,11.92,33.31,23.21,49.49,35.48.66.5,1.41.89,2.09,1.36,2.69,1.85,4.38,1.66,5.33-1.92,3.62-13.67,8.05-27.11,11.93-40.71,5.56-19.52,11.39-38.96,17.3-58.38,1.16-3.83,1.75-7.8,3.12-11.56,1.36-3.73-.31-5.09-3.82-5.68-31.68-5.34-63.14-11.85-94.83-17.16-11.81-1.98-23.53-4.55-35.28-6.89-1.3-.26-3.23,0-3.17-2.29,63.66,0,127.32,0,190.98,0Z"/>
  <path class="cls-7" d="M1307.9,707.92c-9.56-3.01-17.97-8.49-26.94-12.76-17.26-8.21-34.14-17.2-51.21-25.81-33.1-16.7-66.21-33.39-99.34-50.03-18.37-9.22-36.79-18.32-55.18-27.49-.24-.12-.39-.45-1.21-1.45,78.12-36.54,156-72.96,233.88-109.39v73.98c-7.43,5.79-16.26,8.93-24.63,12.91-5.23,2.49-10.44,5.01-16.41,7.97,5.65,1.89,10.74,2.11,15.68,2.51,5.79.46,11.54,1.48,17.38,1.35,2.82-.06,5.67.26,7.97,2.26,0,41.99,0,83.98,0,125.97Z"/>
  <path class="cls-6" d="M308.03.09c9.38,2.78,19.07,4.05,28.63,5.89,23.29,4.46,46.64,8.58,69.96,12.83,11.75,2.14,23.49,4.29,35.25,6.37,6.19,1.09,6.26,1.28,4.52,7.29-7.59,26.12-15.06,52.28-22.65,78.4-3.33,11.46-7,22.83-10.24,34.32-1.02,3.62-2.26,3.67-5,1.7-11.57-8.35-23.21-16.59-34.85-24.85-20.29-14.39-40.64-28.7-60.87-43.17-23.36-16.7-46.6-33.56-69.92-50.31-11.86-8.52-23.77-16.96-35.67-25.41-1.22-.87-2.56-1.57-3.15-3.06,34.66,0,69.32,0,103.99,0Z"/>
  <path class="cls-6" d="M1307.9,223.04c-20.52-4.14-41.05-8.29-61.57-12.43-4.56-.92-9.23-1.51-13.66-2.85-3.72-1.12-5.32-.28-6.45,3.47-7.35,24.37-14.88,48.69-22.39,73.01-9.36,30.33-18.76,60.65-28.35,91.62-2.31-3.36-1.86-6.75-2.22-9.75-4.96-41.44-9.66-82.91-14.54-124.36-4.07-34.51-8.32-69-12.4-103.51-.34-2.86-1.97-6.79.29-8.42,1.84-1.32,5.08,1.51,7.63,2.58,49.98,21.07,99.92,42.23,149.88,63.35,1.22.51,2.51.85,3.77,1.27v25.99Z"/>
  <path class="cls-2" d="M.07,127.06c7.8,1.44,15.78,2.24,23.35,4.48,10.18,3.01,20.6,4.85,30.88,7.32,18.32,4.39,36.76,8.31,55.15,12.45,9.84,2.21,19.66,4.55,29.53,6.64,2.33.49,3.56.55,1.58,3.17-17.18,22.75-34.3,45.55-51.4,68.37-10.03,13.39-19.91,26.9-30,40.25-16.58,21.94-33.23,43.82-49.94,65.66-2.99,3.91-4.71,8.85-9.16,11.62,0-22.99,0-45.99,0-68.98,2.47-4.78,6.31-8.53,9.65-12.65,15.25-18.84,30.49-37.68,45.96-56.34,5.19-6.27,10.29-12.62,15.42-18.94,3.36-4.14,3-4.91-2.22-5.73-16.89-2.68-33.89-4.63-50.8-7.21-6.01-.92-12.27-.54-18.01-3.1,0-15.66,0-31.33,0-46.99Z"/>
  <path class="cls-6" d="M1254.91.09c6.52,21.82,13.02,43.64,19.58,65.45,8,26.59,16.05,53.16,24.08,79.73.25.82.45,1.6-.45,2.78-8.85-6.32-17.72-12.65-26.58-19-39.44-28.28-78.88-56.57-118.32-84.86-19.18-13.76-38.35-27.54-57.5-41.34-1.05-.76-1.86-1.83-2.79-2.76,21.66,0,43.33,0,64.99,0,9.2,5.14,16.94,12.25,25.22,18.62,22.38,17.2,44.6,34.62,67.31,52.32-4.93-13.56-9.91-26.58-14.82-39.62-3.22-8.55-6.18-17.2-9.58-25.69-.72-1.79-1.75-3.72-.14-5.63,9.67,0,19.33,0,29,0Z"/>
  <path class="cls-9" d="M843.96.09c-15.7,27.05-31.46,54.06-47,81.2-1.9,3.32-3.18,3.5-6.39,1.68-47.15-26.76-94.38-53.36-141.58-80.02-1.43-.81-3.12-1.28-4-2.86h198.97Z"/>
  <path class="cls-5" d="M74.06,735.92c-2.58-7.58-3.19-15.4-3.43-23.35-.08-2.79-.48-5.46.08-8.31,1.37-6.96-.53-13.86-1.05-20.78-.13-1.78-1.45-3.86-3.5-3.65-2.11.22-1.04,2.46-1.02,3.71.04,2.86-1,4.42-3.96,4.55-2.29.09-2.6,5.04-4.71,3.11-2.65-2.41,2.57-2.7,2.7-5.17.17-3.22,2.05-5.91,4.43-8.14,1.19-1.11,1.78-2.46,1.26-4.05-.98-3.02-1.72-5.63,2.32-7.37,1.87-.8.31-3.34.5-5.06,1.24-11.48-2.7-22.63-1.97-34.17.25-3.88-2.88-8.18-3.32-12.66-.23-2.34-1.06-4.91,1.19-6.46,3.17-2.18,2.85-4.99,2.04-7.94-.82-3.02-.79-5.86.64-8.71,1.53-3.04,1.26-5.54-2.58-6.48-2.29-.56-2.76-2.21-2.6-4.19.42-5.12,1.24-10.2,1.15-15.36-.02-1,.72-2.57,1.54-2.96,5.78-2.73,3.1-7.19,2.43-11.18-1.48-8.74-4.41-17.34-2.32-26.41.26-1.11.55-2.6.03-3.43-4.47-7.24-1.15-15.05-1.7-22.55-.68-9.16,1.35-18.38-.88-27.63-.88-3.64,2.8-6.59,4.75-9.56,1.95-2.97,4.64-4,8.98-4.17,9.41-.37,18.43,1.82,27.51,2.85,9.36,1.06,19.11-.35,28.18,3.3.74.3,1.64.25,2.46.28,6.74.25,13.24-.84,20.12,2.43,4.91,2.33,11.74.61,17.65,1.58,1.29.21,3.07-.1,3.82.64,5.66,5.67,12.36,3.16,18.79,2.64,3.65-.3,7.19-.88,10.48,1.63,1.81,1.38,3.93,2.4,6.51,1.25.9-.4,2.48-.17,3.35.39,8.33,5.35,17.96,4.36,27.07,5.26,8.58.85,17.36.77,25.96-.02,5.62-.52,10.74,1.45,16.21,1.29,9.62-.28,15.48-10.03,10.61-18.42-2.24-3.86-5.51-7.16-1.13-11.86,1.38-1.47-.43-2.82-2.61-2.64-7.72.64-8.83-.58-7.53-8.09.14-.8.54-1.85.19-2.39-3.62-5.58-2.86-12.46-5.52-18.27-2.07-4.51-.93-9.2-1.07-13.79-.11-3.44-.42-6.5-3-9.17-1.99-2.06-3.24-4.96-2.71-7.74.76-4-1.32-5.38-4.41-5.58-3.5-.23-3.77-2.14-4.04-4.95-.45-4.61-.75-9.1,0-13.76,1.29-7.93-2.66-15.02-4.31-22.48-.25-1.12-.62-2.27-.57-3.39.16-3.47-1.13-6.49-2.52-9.53-1.22-2.67-5.39-4.92-1.48-8.47,2.39-2.17,2.12-6.46,5.97-7.44,4.73-2.4,9.75-2.08,14.79-1.6,2.77,3.11,1.94,5.7-1.67,6.92-4.35,1.47-4.76,4.33-5.14,8.4-.77,8.29-1.11,16.54,2.77,23.96,4.39,8.41,6.62,17.26,8.03,26.47.43,2.83,2.3,4.77,4.59,6.28,3.3,2.18,4.86,5.18,5.26,9.13.91,8.94,2.94,17.66,4.99,26.43,1.68,7.19,1.29,14.85,4.63,21.79,1.09,2.27,1.89,4.64,4.05,6.14,2.38,1.65,3.36,4.08,3.75,6.79,1.45,10.16,4.21,20.11,3.7,30.56-.29,5.99-1.79,7.78-7.66,7.47-7.31-.39-14.68-.59-21.88-1.63-9.5-1.37-19.02-2.77-28.53-4.04-6.75-.9-13.45-2.6-20.24-2.64-14.66-.08-29.18-2.56-43.85-2.2-2.74.07-5.24-.96-7.56-2.31-6.64-3.86-14.17-4.15-21.37-5.94-13.84-3.43-28.11-2.45-41.88-5.52-2.28-.51-4.56-1.14-6.9-1.06-10.96.38-21.88-1.76-32.88-.16-5.41.79-6.69,1.22-6.44,6.59.38,8.21.88,16.21,3.73,24.36,2.96,8.48,5.26,17.4,4.46,27.21-.98,12.02-3.01,24.05-2.35,36.23.29,5.33-.4,10.66-2.3,15.71-.96,2.54-.23,4.47,1.37,6.42,6.12,7.44,6.1,15.92,3.6,24.56-.94,3.25-1.69,6.41-1.6,9.78.17,6.69-1.92,13.35-1.48,19.84.48,7.14-.95,14.78,3.03,21.5,1.97,3.32,1.66,7.14,1.91,10.72.55,7.88.69,15.47-1.99,23.5-2.24,6.71-3.48,14.66-1.91,23.46,3.07-4.22,2.73-7.75,1.85-11.29-.66-2.62-1.16-5.21-.44-7.88.92-3.44,2-3.83,4.75-1.73,5.38,4.12,6.66,3.69,9.23-3.11,2.65-7.01,4.38-8.11,9.83-6.22-6.54,14-13.1,27.99-19.62,42-1.18,2.53-2.72,4.97-2.59,7.94h-5Z"/>
  <path class="cls-9" d="M.07,54.08c9.22,1.69,17.68,5.7,26.4,8.83,45.86,16.51,91.63,33.28,137.44,49.95,33.45,12.17,66.88,24.36,100.37,36.42,2.31.83,3.98,3.19,6.77,2.76,1.16.98,1.92,2.04-.32,2.42-1.19.2-2.54.42-3.68-.41-30.85-7.36-61.72-14.67-92.55-22.09-36.18-8.72-72.33-17.59-108.52-26.3-21.95-5.28-43.94-10.4-65.91-15.59,0-12,0-23.99,0-35.99Z"/>
  <path class="cls-6" d="M.07,174.05c11.78.31,23.33,2.71,34.98,4.12,11.34,1.37,22.62,3.2,33.92,4.85,1.14.17,2.26.53,3.4.64,3.84.35,3.98,1.98,1.78,4.67-7.35,9-14.65,18.03-21.97,27.04-10.66,13.13-21.1,26.45-32.08,39.3-6.66,7.8-12.22,16.55-20.05,23.35,0-34.66,0-69.32,0-103.98Z"/>
  <path class="cls-8" d="M.07,595.95c4.58,7.49,8.16,15.49,11.95,23.38,9.02,18.78,18.12,37.52,27.09,56.32,9.12,19.11,18.11,38.29,27.13,57.44.41.88.55,1.88.82,2.82-7.67,0-15.33,0-23,0-5.8-4.63-9.44-11.03-13.62-16.93-9.01-12.73-18.42-25.15-27.36-37.93-1.15-1.65-1.88-3.5-3.01-5.13,0-26.66,0-53.32,0-79.98Z"/>
  <path class="cls-2" d="M1225.91.09c.43,4.86,2.73,9.14,4.38,13.6,6.9,18.69,13.9,37.34,20.99,55.96.51,1.34.63,2.5.46,3.95-23.43-18.22-46.85-36.34-70.14-54.61-7.94-6.23-16.37-11.87-23.68-18.9,22.66,0,45.33,0,67.99,0Z"/>
  <path class="cls-9" d="M507,735.92c5.24-11.13,12.06-21.37,18.09-32.05,4.98-8.83,10.15-17.56,15.12-26.39,1.4-2.49,2.23-2.95,3.91-.15,11.38,18.94,22.88,37.82,34.32,56.73.33.54.38,1.24.55,1.87-24,0-47.99,0-71.99,0Z"/>
  <path class="cls-3" d="M.07,675.93c6.07,5.74,10.02,13.09,14.93,19.7,9.86,13.3,19.4,26.84,29.07,40.28-13.66,0-27.33-.07-40.99.07-2.5.03-3.08-.57-3.07-3.07.12-18.99.07-37.99.07-56.99Z"/>
  <path class="cls-5" d="M78.18,393.95c-4.13,3.13-9.95,1.12-13.63,3.58-4.28,2.85-8.36,3.58-13.03,3.46-.17,0-.33,0-.5-.02-1.68-.24-3.5-.66-4.28-2.19-1.18-2.3,2.34-1.8,2.45-3.5-7.6-4.27-17.37-3.19-23.53,2.63-2.26,2.13-4.49,3.72-7.97,2.53-3.14-1.07-4.14,1.41-3.45,3.64,1.1,3.56-.25,6.39-1.35,9.52-1.34,3.8-1.69,7.9.11,11.6,1.28,2.63,1.16,3.63-1.5,5.41-3.69,2.48-7.45,2.41-11.42,2.39v-29.99c6.45-6.28,11.19-13.9,16.43-21.11,2.39-3.28,4.16-4.94,8.8-3.48,17.52,5.52,35.24,10.41,52.88,15.54Z"/>
  <path class="cls-4" d="M1307.9,581.95c-13.47-1.33-26.94-2.64-40.41-4-1.07-.11-2.66.49-3.06-.9-.45-1.6,1.17-2.26,2.27-2.8,6.06-2.95,12.17-5.8,18.27-8.66,7.63-3.56,15.28-7.09,22.92-10.64v26.99Z"/>
  <path class="cls-9" d="M657.98,735.92c-11.27-5.68-23.44-9.1-35.06-13.92-2.73-1.13-5.51-2.12-8.07-4.15,5.99.99,11.98,1.98,17.96,2.98,26.85,4.52,53.7,9.03,80.53,13.61,1.57.27,3.36.15,4.63,1.47-20,0-39.99,0-59.99,0Z"/>
  <path class="cls-3" d="M119.05,735.92c2.05-7.49,7.42-13.23,10.7-20.07,1.84-3.84,4.29-7.38,7.29-10.93,0,10.33,0,20.67,0,31h-18Z"/>
  <path class="cls-5" d="M101.27,685.98c-5.37-.63-7.95,1.99-8.44,7.15-.06.63-.51,1.22-.79,1.83-3.21,6.99-6.24,7.31-10.89,1.14-.38-.5-.76-1-1.33-1.76-1.83,3.53-1.75,6.66-.55,10.1,1.46,4.2,1.63,8.51-1.47,12.27-.59.71-.87,2.01-2.16,1.69-1.11-.27-1.57-1.28-1.51-2.31.26-4.6.88-9.4.75-13.74-.23-7.62,4.21-13.79,4.29-21.11.07-6.35-1.03-12.57-1.12-18.87-.02-1.4-.3-2.88-1.33-3.65-4.06-3.07-2.79-6.97-1.97-10.84.13-.61.75-1.35.56-1.76-5.45-11.75.81-23.48.51-35.27-.14-5.53,2.79-11.71,2.01-17.84-.48-3.8-1.86-7.34-5.09-9.96-2.49-2.01-2.96-4.39-.97-7.41,2.24-3.4,1.93-7.64,2.18-11.51.56-8.75.25-17.46,1.71-26.27,1.18-7.12.38-14.68,1.13-22.07.37-3.66-1.91-7.6-3.07-11.39-3.31-10.81-6.4-21.6-5.76-33.14.24-4.37,1.66-5.92,6.15-6.43,11.63-1.33,23.54-1.47,34.66.63,14.65,2.77,29.91.36,44.07,5.93,2.59,1.02,5.29.32,7.91.61,5.89.65,11.71,1.48,16.91,4.73,3.56,2.22,7.33,3.51,11.77,3.34,14.78-.56,29.47,1.61,44.22,2.24,10.94.47,22.13,2.04,32.76,4.27,12.29,2.57,24.69,1.99,36.86,4.23,3.28.6,4.74-1.83,4.21-4.6-.79-4.17-.39-8.3-.42-12.44-.06-7.86-3.94-15-4.09-22.82-.01-.58-.39-1.35-.85-1.7-8.46-6.35-9.82-15.69-9.93-25.13-.06-5.22-2.61-9.52-3.47-14.42-1.15-6.53-1.93-13.07-2.7-19.63-.17-1.45-.73-2.77-1.89-3.36-6.17-3.13-8.5-8.35-8.75-14.95-.32-8.67-5.54-15.67-8.23-23.53-2.12-6.18-2.82-12.58-1.68-19.09.17-.98.72-2.08.45-2.91-1.86-5.54.75-8.17,5.84-8.96,3.96-.61,2.06-3.32,2.24-5.32,1.11-1.71,2.88-2.19,4.73-2.29,14.85-.83,29.59-3.22,44.5-3.18,1.99,0,3.97-.05,5.9.58,3.17-4.69,8.57-4.89,12.98-4.64,3.67.21,7.92,1.19,11.29,4.24,3.52,3.17,8.6,1.44,12.93,2.15,11.53,1.89,23.05,3.79,34.59,5.64,13.03,2.09,26.25,3.16,39.16,5.8,8.8,1.8,17.8,2.51,26.51,5.6,5.11,1.81,10.55,5.16,16.89,3.41,2.03-.56,4.67,1.26,7.07,1.76,8.55,1.79,17.67,1.85,25.74,4.5,10.26,3.37,20.89,2.78,31,5.63,2.66.75,5.39,2.3,6.3,5,.8,2.38-.06,4.85-2.79,6.14-.44.21-.55,1.12-.82,1.71-22.88,6.92-45.9,13.39-68.74,20.44-25.38,7.83-51.01,14.79-76.29,22.95-9.8,3.16-19.74,5.87-29.69,8.53-3.24.87-4.19,2.37-3.96,5.66,1.05,15.25,1.81,30.53,2.78,45.79,1.53,24.04,3.34,48.06,4.65,72.12.67,12.28,1.17,24.57,2.11,36.84.93,12.09,1.29,24.23,2.18,36.33.33,4.49-.66,5.69-5.45,4.83-44.28-7.93-88.6-15.6-132.92-23.35-22.22-3.89-44.44-7.8-66.67-11.69-6.22-1.09-12.47-2.02-18.66-3.21-2.78-.53-3.88.87-4.9,3.04-6.05,12.96-12.19,25.88-18.25,38.83-8.59,18.34-17.15,36.69-25.71,55.05-3.08,6.61-6.14,13.24-9.21,19.86Z"/>
  <path class="cls-5" d="M90.88,356.05c1.92.49,3.82,1.21,5.77,1.39,1.8.17,3.66.64,4.28,2.11,2.09,4.95,6.93,9.13,5.99,14.89-1.35,8.27,5.65,11.76,8.91,17.35.91,1.56,2.94,2.99,1.8,4.67-2.27,3.34-2.48,7.09-3.17,10.78-.51,2.73-2,3.92-4.87,3.79-3.82-.18-7.66,0-11.49-.06-3.7-.06-6.1-2.43-7.84-5.25-1.84-2.98-3.54-6.12-4.17-9.67,5.93,1.52,11.87,3.01,17.79,4.58.89.23,1.66,1.5,2.63.65,1.05-.92.47-2.15.05-3.24-3.12-8.24-6.27-16.46-9.36-24.71-2.15-5.75-4.21-11.52-6.31-17.29Z"/>
  <path class="cls-9" d="M267.04,154.05c1.05-1.23,4.43,2.16,4-2.01,7.95,2.11,15.58,5.14,22.97,9.04-8.99-2.34-17.98-4.69-26.97-7.03Z"/>
  <path class="cls-6" d="M1076.33,430.36c-72.72-28.67-145.44-57.35-219.34-86.49,6.18-3.63,11.89-5.23,17.33-7.35,20.93-8.14,41.96-16,62.87-24.19,3-1.17,4.72-.63,7.01,1.38,30.28,26.49,60.66,52.87,91,79.29,13.89,12.09,27.73,24.24,41.59,36.36-.15.33-.31.67-.46,1Z"/>
  <path class="cls-6" d="M926.86,655.72c-9.08-1.09-17.73-2.09-26.36-3.16-17.46-2.16-34.91-4.36-52.37-6.54-14.66-1.83-29.32-3.7-43.98-5.5-18.29-2.24-36.58-4.42-54.87-6.64-16.64-2.02-33.28-4.05-49.92-6.1-15.65-1.93-31.28-3.94-46.94-5.79-3.3-.39-5.03-.64-2.9-4.72,7.36-14.1,14.36-28.39,21.45-42.63,9.32-18.71,18.57-37.45,27.91-56.14,4.3-8.61,8.84-17.1,13.07-25.75,1.31-2.68,2.35-2.98,4.73-1.12,10.59,8.29,21.3,16.42,31.96,24.61,26.99,20.73,54.2,41.19,80.92,62.26,31.29,24.68,63.02,48.77,94.48,73.23,1.12.87,2.35,1.78,2.81,3.99Z"/>
  <path class="cls-6" d="M329.15,307.05c-2.2,1.77-4.79.84-7.19.93-16.04.64-31.99,2.19-47.93,3.97-4.95.96-9.96,1.13-14.98,1.14-14.2,1.2-28.41,2.36-42.61,3.6-11.73,1.02-23.44,2.24-35.18,3.19-15.04,1.21-30.11,2.13-45.15,3.43-3.35.29-3.57-.33-2.04-3,10.25-17.82,20.44-35.68,30.66-53.52,6.42-11.21,12.93-22.37,19.22-33.65,2.16-3.87,3.84-5.29,8.56-2.59,19.83,11.34,39.96,22.15,60.01,33.1,10.02,5.47,20.13,10.77,30.13,16.26,14.82,8.15,29.58,16.41,44.38,24.6,1.07.59,1.99,1.2,2.12,2.53Z"/>
  <path class="cls-5" d="M84.58,404.46c-2.56.65-4.68,1.01-6.66,1.74-1.62.6-2.85.57-3.92-.85-.53-.7-.9-1.43-.29-2.23,1.08-1.42,2.67-1.34,4.08-.97,2.18.56,4.29,1.44,6.79,2.3Z"/>
  <path class="cls-1" d="M165.3,456.68c-4.49,1.48-9.01,1.44-13.58,0h13.58Z"/>
  <path class="cls-5" d="M62.12,630.24c1.25-.16,1.72.46,1.82,1.35.11,1.04-.1,2.08-1.4,2.11-.95.02-1.38-.72-1.39-1.65,0-.86.17-1.62.97-1.81Z"/>
  <path class="cls-1" d="M214.03,464.93c-1.88,1.3-3.16,1.38-4.74.07,1.46-1.3,2.75-1.29,4.74-.07Z"/>
</svg>